<svg preserveAspectRatio="xMidYMid meet" width="80" height="88" viewBox="0 0 88 88" fill="none" xmlns="http://www.w3.org/2000/svg">
<path d="M44.0001 84.3333C63.1126 84.3333 79.1314 71.0187 83.2793 53.1667C79.1314 35.3146 63.1126 22 44.0001 22C24.8876 22 8.86886 35.3146 4.72095 53.1667C8.86886 71.0187 24.8876 84.3333 44.0001 84.3333Z" fill="#E3EFFA"/>
<path d="M25.8042 62.1041L27.7063 60.4312C32.2209 56.4666 38.0188 54.2896 44.0459 54.2896C50.0729 54.2896 55.8479 56.4666 60.3625 60.4083L62.2646 62.0812L58.8959 65.8625L56.9938 64.1896C53.4188 61.05 48.8125 59.3083 44 59.3083C39.2104 59.3083 34.5813 61.05 31.0063 64.1896L29.1042 65.8625L25.8042 62.1041Z" fill="#009FD1"/>
<path d="M44 0C19.7313 0 0 19.7313 0 44C0 68.2688 19.7313 88 44 88C68.2688 88 88 68.2688 88 44C88 19.7313 68.2688 0 44 0ZM44 82.5229C22.7563 82.5229 5.47708 65.2438 5.47708 44C5.47708 22.7563 22.7563 5.47708 44 5.47708C65.2438 5.47708 82.5229 22.7563 82.5229 44C82.5229 65.2438 65.2438 82.5229 44 82.5229Z" fill="#009FD1"/>
<path d="M25.6667 33H33.0001V40.3333H25.6667V33Z" fill="#009FD1"/>
<path d="M55 33H62.3333V40.3333H55V33Z" fill="#009FD1"/>
</svg>

