<svg preserveAspectRatio="xMidYMid meet" width="97" height="88" viewBox="0 0 97 88" fill="none" xmlns="http://www.w3.org/2000/svg">
    <path class="color"
          d="M85.975 8.80709H61.033C60.2719 3.82273 56.1064 0 51.0974 0H21.7256C16.1792 0 11.6664 4.68779 11.6664 10.4496V12.9702H10.0943C4.54741 12.9702 0.034668 17.6577 0.034668 23.4196V85.0145C0.034668 86.6637 1.32152 88 2.90872 88H81.5288C83.1165 88 84.4029 86.6637 84.4029 85.0145V75.0301H93.1606C94.7483 75.0301 96.0347 73.6933 96.0347 72.0445V19.257C96.0347 13.4949 91.5219 8.80709 85.975 8.80709ZM49.401 21.7775C48.6404 16.7929 44.4749 12.9702 39.4654 12.9702H17.4145V10.4496C17.4145 7.9801 19.3488 5.97108 21.7256 5.97108H51.0972C53.475 5.97108 55.4088 7.9801 55.4088 10.4496V11.7926C55.4088 13.4416 56.6956 14.7782 58.2828 14.7782H85.975C88.3528 14.7782 90.2866 16.7872 90.2866 19.257V69.059H84.4029V32.2274C84.4029 26.4653 79.8902 21.7775 74.3433 21.7775H49.401ZM78.6548 82.0289H5.78277V23.4193C5.78277 20.95 7.71701 18.941 10.0943 18.941H39.4654C41.8432 18.941 43.777 20.95 43.777 23.4193V24.7628C43.777 26.4118 45.0639 27.7483 46.6511 27.7483H74.3433C76.721 27.7483 78.6548 29.7574 78.6548 32.2271V82.0289Z"
          fill="#08D6B7"/>
</svg>
