<svg width="24" height="24" viewBox="0 0 24 24" fill="none" xmlns="http://www.w3.org/2000/svg">
<path opacity="0.2" d="M12 23C17.2125 23 21.5812 19.3687 22.7125 14.5C21.5812 9.63125 17.2125 6 12 6C6.78748 6 2.41873 9.63125 1.28748 14.5C2.41873 19.3687 6.78748 23 12 23Z" fill="#08D6B7"/>
<path d="M16.9689 15.8438L16.4501 16.3C15.2189 17.3813 13.6376 17.975 11.9939 17.975C10.3501 17.975 8.77515 17.3813 7.5439 16.3063L7.02515 15.85L7.9314 14.8188L8.45015 15.275C9.42515 16.1313 10.6814 16.6063 11.9939 16.6063C13.3001 16.6063 14.5626 16.1313 15.5376 15.275L16.0564 14.8188L16.9689 15.8438Z" fill="#08D6B7"/>
<path d="M12 0C5.38125 0 0 5.38125 0 12C0 18.6187 5.38125 24 12 24C18.6187 24 24 18.6187 24 12C24 5.38125 18.6187 0 12 0ZM12 22.5063C6.20625 22.5063 1.49375 17.7938 1.49375 12C1.49375 6.20625 6.20625 1.49375 12 1.49375C17.7938 1.49375 22.5063 6.20625 22.5063 12C22.5063 17.7938 17.7938 22.5063 12 22.5063Z" fill="#08D6B7"/>
<path d="M7 9H9V11H7V9Z" fill="#08D6B7"/>
<path d="M15 9H17V11H15V9Z" fill="#08D6B7"/>
</svg>
