<svg width="24" height="24" viewBox="0 0 24 24" fill="none" xmlns="http://www.w3.org/2000/svg">
<g  class="color">
<path d="M22.9977 11.9988C22.9977 18.0733 18.0733 22.9977 11.9988 22.9977C5.92434 22.9977 0.99999 18.0733 0.99999 11.9988C0.99999 5.92434 5.92434 0.99999 11.9988 0.99999C18.0733 0.99999 22.9977 5.92434 22.9977 11.9988Z" stroke="#FFD05D" stroke-width="2"/>
<path d="M7.08592 13.8105C6.77609 13.5147 6.28317 13.8387 6.43809 14.2471C7.32534 16.4581 9.49416 18.0355 12.0292 18.0355C14.5219 18.0355 16.6625 16.5286 17.5639 14.3597C17.7329 13.9654 17.2259 13.6274 16.9301 13.9232C15.1697 15.6272 11.4377 18.0496 7.08592 13.8105Z" fill="#FFD05D"/>
<path d="M8.46614 9.85306C8.46614 10.6699 8.07181 11.3459 7.5789 11.3459C7.08598 11.3459 6.69165 10.684 6.69165 9.85306C6.69165 9.03623 7.08598 8.36023 7.5789 8.36023C8.07181 8.36023 8.46614 9.02214 8.46614 9.85306Z" fill="#FFD05D"/>
<path d="M17.3106 9.85312C17.3106 10.6699 16.9163 11.3459 16.4234 11.3459C15.9305 11.3459 15.5361 10.684 15.5361 9.85312C15.5361 9.03629 15.9305 8.36029 16.4234 8.36029C16.9163 8.36029 17.3106 9.0222 17.3106 9.85312Z" fill="#FFD05D"/>
</g>
</svg>
