<svg width="28" height="30" viewBox="0 0 28 30" fill="none" xmlns="http://www.w3.org/2000/svg">
<g filter="url(#filter0_dd)">
<path d="M13.9988 25.9977C20.6256 25.9977 25.9977 20.6256 25.9977 13.9988C25.9977 7.37206 20.6256 2 13.9988 2C7.37206 2 2 7.37206 2 13.9988C2 20.6256 7.37206 25.9977 13.9988 25.9977Z" fill="#FFD05D"/>
</g>
<path d="M20.2812 3.75433C21.4783 5.62741 22.1684 7.83848 22.1684 10.2186C22.1684 16.8518 16.7886 22.2175 10.1694 22.2175C7.87387 22.2175 5.71913 21.5697 3.88831 20.443C6.01488 23.7667 9.76103 25.9777 14.0001 25.9777C20.6333 25.9777 25.999 20.5979 25.999 13.9788C26.0131 9.65523 23.7176 5.86683 20.2812 3.75433Z" fill="#FDC453"/>
<path d="M3.63536 15.2609C3.63536 9.10646 8.62084 4.12098 14.7752 4.12098C18.3665 4.12098 21.5775 5.82506 23.6054 8.47271C21.6901 5.13498 18.0848 2.88165 13.9443 2.88165C7.78992 2.88165 2.80444 7.86713 2.80444 14.0215C2.80444 16.5847 3.66352 18.9366 5.1141 20.8097C4.17052 19.1901 3.63536 17.2888 3.63536 15.2609Z" fill="#FFD77F"/>
<path d="M9.08592 15.8105C8.77609 15.5147 8.28317 15.8387 8.43809 16.2471C9.32534 18.4581 11.4942 20.0355 14.0292 20.0355C16.5219 20.0355 18.6625 18.5286 19.5639 16.3597C19.7329 15.9654 19.2259 15.6274 18.9301 15.9232C17.1697 17.6272 13.4377 20.0496 9.08592 15.8105Z" fill="#5E4939"/>
<path d="M10.4661 11.8531C10.4661 12.6699 10.0718 13.3459 9.5789 13.3459C9.08598 13.3459 8.69165 12.684 8.69165 11.8531C8.69165 11.0362 9.08598 10.3602 9.5789 10.3602C10.0718 10.3602 10.4661 11.0221 10.4661 11.8531Z" fill="#303030"/>
<path d="M19.3106 11.8531C19.3106 12.6699 18.9163 13.3459 18.4234 13.3459C17.9305 13.3459 17.5361 12.684 17.5361 11.8531C17.5361 11.0363 17.9305 10.3603 18.4234 10.3603C18.9163 10.3603 19.3106 11.0222 19.3106 11.8531Z" fill="#303030"/>
<defs>
<filter id="filter0_dd" x="0" y="0" width="27.9977" height="29.9977" filterUnits="userSpaceOnUse" color-interpolation-filters="sRGB">
<feFlood flood-opacity="0" result="BackgroundImageFix"/>
<feColorMatrix in="SourceAlpha" type="matrix" values="0 0 0 0 0 0 0 0 0 0 0 0 0 0 0 0 0 0 127 0"/>
<feOffset dy="2"/>
<feGaussianBlur stdDeviation="1"/>
<feColorMatrix type="matrix" values="0 0 0 0 0 0 0 0 0 0 0 0 0 0 0 0 0 0 0.34 0"/>
<feBlend mode="normal" in2="BackgroundImageFix" result="effect1_dropShadow"/>
<feColorMatrix in="SourceAlpha" type="matrix" values="0 0 0 0 0 0 0 0 0 0 0 0 0 0 0 0 0 0 127 0"/>
<feOffset/>
<feGaussianBlur stdDeviation="1"/>
<feColorMatrix type="matrix" values="0 0 0 0 0 0 0 0 0 0 0 0 0 0 0 0 0 0 0.24 0"/>
<feBlend mode="normal" in2="effect1_dropShadow" result="effect2_dropShadow"/>
<feBlend mode="normal" in="SourceGraphic" in2="effect2_dropShadow" result="shape"/>
</filter>
</defs>
</svg>
